<?xml version="1.0" encoding="utf-8"?>
<svg xmlns="http://www.w3.org/2000/svg" xmlns:xlink="http://www.w3.org/1999/xlink" width="600" height="400" viewBox="0 0 2400 1600">
<defs>
  <clipPath id="clip7400">
    <rect x="0" y="0" width="2400" height="1600"/>
  </clipPath>
</defs>
<polygon clip-path="url(#clip7400)" points="
0,1600 2400,1600 2400,0 0,0 
  " fill="#ffffff" fill-rule="evenodd" fill-opacity="1"/>
<defs>
  <clipPath id="clip7401">
    <rect x="480" y="0" width="1681" height="1600"/>
  </clipPath>
</defs>
<polygon clip-path="url(#clip7400)" points="
167.279,1487.47 2352.76,1487.47 2352.76,47.2441 167.279,47.2441 
  " fill="#ffffff" fill-rule="evenodd" fill-opacity="1"/>
<defs>
  <clipPath id="clip7402">
    <rect x="167" y="47" width="2186" height="1441"/>
  </clipPath>
</defs>
<polyline clip-path="url(#clip7400)" style="stroke:#000000; stroke-width:4; stroke-opacity:1; fill:none" points="
  167.279,1487.47 2352.76,1487.47 
  "/>
<polyline clip-path="url(#clip7400)" style="stroke:#000000; stroke-width:4; stroke-opacity:1; fill:none" points="
  167.279,1487.47 167.279,47.2441 
  "/>
<polyline clip-path="url(#clip7400)" style="stroke:#000000; stroke-width:4; stroke-opacity:1; fill:none" points="
  525.354,1487.47 525.354,1465.87 
  "/>
<polyline clip-path="url(#clip7400)" style="stroke:#000000; stroke-width:4; stroke-opacity:1; fill:none" points="
  961.788,1487.47 961.788,1465.87 
  "/>
<polyline clip-path="url(#clip7400)" style="stroke:#000000; stroke-width:4; stroke-opacity:1; fill:none" points="
  1398.22,1487.47 1398.22,1465.87 
  "/>
<polyline clip-path="url(#clip7400)" style="stroke:#000000; stroke-width:4; stroke-opacity:1; fill:none" points="
  1834.65,1487.47 1834.65,1465.87 
  "/>
<polyline clip-path="url(#clip7400)" style="stroke:#000000; stroke-width:4; stroke-opacity:1; fill:none" points="
  2271.09,1487.47 2271.09,1465.87 
  "/>
<polyline clip-path="url(#clip7400)" style="stroke:#000000; stroke-width:4; stroke-opacity:1; fill:none" points="
  167.279,1211.07 200.061,1211.07 
  "/>
<polyline clip-path="url(#clip7400)" style="stroke:#000000; stroke-width:4; stroke-opacity:1; fill:none" points="
  167.279,920.111 200.061,920.111 
  "/>
<polyline clip-path="url(#clip7400)" style="stroke:#000000; stroke-width:4; stroke-opacity:1; fill:none" points="
  167.279,629.155 200.061,629.155 
  "/>
<polyline clip-path="url(#clip7400)" style="stroke:#000000; stroke-width:4; stroke-opacity:1; fill:none" points="
  167.279,338.2 200.061,338.2 
  "/>
<polyline clip-path="url(#clip7400)" style="stroke:#000000; stroke-width:4; stroke-opacity:1; fill:none" points="
  167.279,47.2441 200.061,47.2441 
  "/>
<g clip-path="url(#clip7400)">
<text style="fill:#000000; fill-opacity:1; font-family:Arial,Helvetica Neue,Helvetica,sans-serif; font-size:48px; text-anchor:middle;" transform="rotate(0, 525.354, 1541.47)" x="525.354" y="1541.47">0</text>
</g>
<g clip-path="url(#clip7400)">
<text style="fill:#000000; fill-opacity:1; font-family:Arial,Helvetica Neue,Helvetica,sans-serif; font-size:48px; text-anchor:middle;" transform="rotate(0, 961.788, 1541.47)" x="961.788" y="1541.47">30</text>
</g>
<g clip-path="url(#clip7400)">
<text style="fill:#000000; fill-opacity:1; font-family:Arial,Helvetica Neue,Helvetica,sans-serif; font-size:48px; text-anchor:middle;" transform="rotate(0, 1398.22, 1541.47)" x="1398.22" y="1541.47">60</text>
</g>
<g clip-path="url(#clip7400)">
<text style="fill:#000000; fill-opacity:1; font-family:Arial,Helvetica Neue,Helvetica,sans-serif; font-size:48px; text-anchor:middle;" transform="rotate(0, 1834.65, 1541.47)" x="1834.65" y="1541.47">90</text>
</g>
<g clip-path="url(#clip7400)">
<text style="fill:#000000; fill-opacity:1; font-family:Arial,Helvetica Neue,Helvetica,sans-serif; font-size:48px; text-anchor:middle;" transform="rotate(0, 2271.09, 1541.47)" x="2271.09" y="1541.47">120</text>
</g>
<g clip-path="url(#clip7400)">
<text style="fill:#000000; fill-opacity:1; font-family:Arial,Helvetica Neue,Helvetica,sans-serif; font-size:48px; text-anchor:end;" transform="rotate(0, 143.279, 1228.57)" x="143.279" y="1228.57">20</text>
</g>
<g clip-path="url(#clip7400)">
<text style="fill:#000000; fill-opacity:1; font-family:Arial,Helvetica Neue,Helvetica,sans-serif; font-size:48px; text-anchor:end;" transform="rotate(0, 143.279, 937.611)" x="143.279" y="937.611">40</text>
</g>
<g clip-path="url(#clip7400)">
<text style="fill:#000000; fill-opacity:1; font-family:Arial,Helvetica Neue,Helvetica,sans-serif; font-size:48px; text-anchor:end;" transform="rotate(0, 143.279, 646.655)" x="143.279" y="646.655">60</text>
</g>
<g clip-path="url(#clip7400)">
<text style="fill:#000000; fill-opacity:1; font-family:Arial,Helvetica Neue,Helvetica,sans-serif; font-size:48px; text-anchor:end;" transform="rotate(0, 143.279, 355.7)" x="143.279" y="355.7">80</text>
</g>
<g clip-path="url(#clip7400)">
<text style="fill:#000000; fill-opacity:1; font-family:Arial,Helvetica Neue,Helvetica,sans-serif; font-size:48px; text-anchor:end;" transform="rotate(0, 143.279, 64.7441)" x="143.279" y="64.7441">100</text>
</g>
<polyline clip-path="url(#clip7402)" style="stroke:#000000; stroke-width:4; stroke-opacity:1; fill:none" points="
  167.279,47.2441 2352.76,47.2441 
  "/>
<polyline clip-path="url(#clip7402)" style="stroke:#000000; stroke-width:4; stroke-opacity:1; fill:none" points="
  2352.76,1487.47 2352.76,47.2441 
  "/>
<polyline clip-path="url(#clip7402)" style="stroke:#f2e55f; stroke-width:4; stroke-opacity:1; fill:none" points="
  1121.81,779.188 1123.42,774.633 1121.81,770.078 1111.82,760.086 1107.27,758.48 1102.71,760.086 
  "/>
<polyline clip-path="url(#clip7402)" style="stroke:#f2e55f; stroke-width:4; stroke-opacity:1; fill:none" points="
  1102.71,789.181 1107.27,790.787 1111.82,789.181 1121.81,779.188 
  "/>
<polyline clip-path="url(#clip7402)" style="stroke:#f2e55f; stroke-width:4; stroke-opacity:1; fill:none" points="
  1092.72,779.188 1091.11,774.633 1092.72,770.078 1102.71,760.086 
  "/>
<polyline clip-path="url(#clip7402)" style="stroke:#fba40a; stroke-width:4; stroke-opacity:1; fill:none" points="
  1092.72,749.016 1081.65,760.086 1078.17,771.042 1077.37,774.633 1078.17,778.224 1081.65,789.181 1092.72,800.251 1103.67,803.729 1107.27,804.534 1110.86,803.729 
  1121.81,800.251 1132.88,789.181 1136.36,778.224 1137.17,774.633 1136.36,771.042 1132.88,760.086 1121.81,749.016 1110.86,745.538 1107.27,744.733 1103.67,745.538 
  1092.72,749.016 
  "/>
<polyline clip-path="url(#clip7402)" style="stroke:#f9c52d; stroke-width:4; stroke-opacity:1; fill:none" points="
  1092.72,756.407 1089.04,760.086 1084.1,774.633 1089.04,789.181 1092.72,792.859 1107.27,797.798 1121.81,792.859 1125.49,789.181 1130.43,774.633 1125.49,760.086 
  1121.81,756.407 1107.27,751.468 1092.72,756.407 
  "/>
<polyline clip-path="url(#clip7402)" style="stroke:#ec6925; stroke-width:4; stroke-opacity:1; fill:none" points="
  1107.27,734.293 1092.72,737.121 1079.48,745.538 1078.17,746.85 1069.75,760.086 1066.93,774.633 1069.75,789.181 1078.17,802.416 1079.48,803.729 1092.72,812.145 
  1107.27,814.974 1121.81,812.145 1135.05,803.729 1136.36,802.416 1144.78,789.181 1147.61,774.633 1144.78,760.086 1136.36,746.85 1135.05,745.538 1121.81,737.121 
  1107.27,734.293 
  "/>
<polyline clip-path="url(#clip7402)" style="stroke:#f7850e; stroke-width:4; stroke-opacity:1; fill:none" points="
  1107.27,739.513 1092.72,742.624 1088.14,745.538 1078.17,755.504 1075.26,760.086 1072.15,774.633 1075.26,789.181 1078.17,793.763 1088.14,803.729 1092.72,806.643 
  1107.27,809.754 1121.81,806.643 1126.4,803.729 1136.36,793.763 1139.28,789.181 1142.39,774.633 1139.28,760.086 1136.36,755.504 1126.4,745.538 1121.81,742.624 
  1107.27,739.513 
  "/>
<polyline clip-path="url(#clip7402)" style="stroke:#db503a; stroke-width:4; stroke-opacity:1; fill:none" points="
  1121.81,731.618 1118.36,730.99 1107.27,729.104 1096.17,730.99 1092.72,731.618 1078.17,740.073 1072.71,745.538 1064.25,760.086 1063.62,763.535 1061.74,774.633 
  1063.62,785.732 1064.25,789.181 1072.71,803.729 1078.17,809.194 1092.72,817.648 1096.17,818.277 1107.27,820.163 1118.36,818.277 1121.81,817.648 1136.36,809.194 
  1141.83,803.729 1150.28,789.181 1150.91,785.732 1152.8,774.633 1150.91,763.535 1150.28,760.086 1141.83,745.538 1136.36,740.073 1121.81,731.618 
  "/>
<polyline clip-path="url(#clip7402)" style="stroke:#c73e4c; stroke-width:4; stroke-opacity:1; fill:none" points="
  1148.27,745.538 1150.91,750.139 1155.7,760.086 1157.93,774.633 1155.7,789.181 1150.91,799.127 1148.27,803.729 1136.36,815.636 1131.76,818.277 1121.81,823.071 
  1107.27,825.297 1092.72,823.071 1082.77,818.277 1078.17,815.636 1066.26,803.729 1063.62,799.127 1058.83,789.181 1056.6,774.633 1058.83,760.086 1063.62,750.139 
  1066.26,745.538 1078.17,733.63 1082.77,730.99 1092.72,726.195 1107.27,723.97 1121.81,726.195 1131.76,730.99 1136.36,733.63 1148.27,745.538 
  "/>
<polyline clip-path="url(#clip7402)" style="stroke:#942666; stroke-width:4; stroke-opacity:1; fill:none" points="
  1160.98,745.538 1165.46,756.899 1166.73,760.086 1168.7,774.633 1166.73,789.181 1165.46,792.368 1160.98,803.729 1150.91,817.021 1149.65,818.277 1136.36,828.352 
  1125,832.824 1121.81,834.093 1107.27,836.069 1092.72,834.093 1089.53,832.824 1078.17,828.352 1064.88,818.277 1063.62,817.021 1053.55,803.729 1049.07,792.368 
  1047.81,789.181 1045.83,774.633 1047.81,760.086 1049.07,756.899 1053.55,745.538 1063.62,732.246 1064.88,730.99 1078.17,720.914 1089.53,716.442 1092.72,715.174 
  1107.27,713.198 1121.81,715.174 1125,716.442 1136.36,720.914 1149.65,730.99 1150.91,732.246 1160.98,745.538 
  "/>
<polyline clip-path="url(#clip7402)" style="stroke:#ad305b; stroke-width:4; stroke-opacity:1; fill:none" points="
  1154.65,745.538 1161.12,760.086 1163.06,774.633 1161.12,789.181 1154.65,803.729 1150.91,808.662 1141.29,818.277 1136.36,822.016 1121.81,828.484 1107.27,830.431 
  1092.72,828.484 1078.17,822.016 1073.24,818.277 1063.62,808.662 1059.88,803.729 1053.42,789.181 1051.47,774.633 1053.42,760.086 1059.88,745.538 1063.62,740.605 
  1073.24,730.99 1078.17,727.251 1092.72,720.783 1107.27,718.836 1121.81,720.783 1136.36,727.251 1141.29,730.99 1150.91,740.605 1154.65,745.538 
  "/>
<polyline clip-path="url(#clip7402)" style="stroke:#5d126d; stroke-width:4; stroke-opacity:1; fill:none" points="
  1175.16,745.538 1179.54,760.086 1180,765.044 1181.17,774.633 1180,784.222 1179.54,789.181 1175.16,803.729 1166.24,818.277 1165.46,819.223 1151.86,832.824 
  1150.91,833.606 1136.36,842.532 1121.81,846.907 1116.85,847.372 1107.27,848.54 1097.68,847.372 1092.72,846.907 1078.17,842.532 1063.62,833.606 1062.68,832.824 
  1049.07,819.223 1048.29,818.277 1039.37,803.729 1034.99,789.181 1034.53,784.222 1033.36,774.633 1034.53,765.044 1034.99,760.086 1039.37,745.538 1048.29,730.99 
  1049.07,730.044 1062.68,716.442 1063.62,715.661 1078.17,706.734 1092.72,702.359 1097.68,701.894 1107.27,700.726 1116.85,701.894 1121.81,702.359 1136.36,706.734 
  1150.91,715.661 1151.86,716.442 1165.46,730.044 1166.24,730.99 1175.16,745.538 
  "/>
<polyline clip-path="url(#clip7402)" style="stroke:#781c6d; stroke-width:4; stroke-opacity:1; fill:none" points="
  1167.66,745.538 1173.13,760.086 1174.78,774.633 1173.13,789.181 1167.66,803.729 1165.46,807.255 1157.9,818.277 1150.91,825.263 1139.89,832.824 1136.36,835.031 
  1121.81,840.5 1107.27,842.147 1092.72,840.5 1078.17,835.031 1074.64,832.824 1063.62,825.263 1056.64,818.277 1049.07,807.255 1046.87,803.729 1041.4,789.181 
  1039.75,774.633 1041.4,760.086 1046.87,745.538 1049.07,742.012 1056.64,730.99 1063.62,724.004 1074.64,716.442 1078.17,714.235 1092.72,708.766 1107.27,707.12 
  1121.81,708.766 1136.36,714.235 1139.89,716.442 1150.91,724.004 1157.9,730.99 1165.46,742.012 1167.66,745.538 
  "/>
<polyline clip-path="url(#clip7402)" style="stroke:#240b4e; stroke-width:4; stroke-opacity:1; fill:none" points="
  1193.93,745.538 1194.55,748.199 1198.24,760.086 1199.64,774.633 1198.24,789.181 1194.55,801.068 1193.93,803.729 1187.81,818.277 1180,829.168 1177.26,832.824 
  1165.46,844.63 1161.8,847.372 1150.91,855.181 1136.36,861.298 1133.7,861.92 1121.81,865.606 1107.27,867.007 1092.72,865.606 1080.83,861.92 1078.17,861.298 
  1063.62,855.181 1052.73,847.372 1049.07,844.63 1037.27,832.824 1034.53,829.168 1026.72,818.277 1020.6,803.729 1019.98,801.068 1016.29,789.181 1014.89,774.633 
  1016.29,760.086 1019.98,748.199 1020.6,745.538 1026.72,730.99 1034.53,720.098 1037.27,716.442 1049.07,704.637 1052.73,701.894 1063.62,694.085 1078.17,687.969 
  1080.83,687.347 1092.72,683.661 1107.27,682.26 1121.81,683.661 1133.7,687.347 1136.36,687.969 1150.91,694.085 1161.8,701.894 1165.46,704.637 1177.26,716.442 
  1180,720.098 1187.81,730.99 1193.93,745.538 
  "/>
<polyline clip-path="url(#clip7402)" style="stroke:#420a67; stroke-width:4; stroke-opacity:1; fill:none" points="
  1183.65,745.538 1188.15,760.086 1189.5,774.633 1188.15,789.181 1183.65,803.729 1180,810.438 1175.97,818.277 1165.46,831.01 1163.64,832.824 1150.91,843.338 
  1143.07,847.372 1136.36,851.019 1121.81,855.515 1107.27,856.869 1092.72,855.515 1078.17,851.019 1071.46,847.372 1063.62,843.338 1050.89,832.824 1049.07,831.01 
  1038.56,818.277 1034.53,810.438 1030.88,803.729 1026.38,789.181 1025.03,774.633 1026.38,760.086 1030.88,745.538 1034.53,738.828 1038.56,730.99 1049.07,718.257 
  1050.89,716.442 1063.62,705.928 1071.46,701.894 1078.17,698.248 1092.72,693.751 1107.27,692.398 1121.81,693.751 1136.36,698.248 1143.07,701.894 1150.91,705.928 
  1163.64,716.442 1165.46,718.257 1175.97,730.99 1180,738.828 1183.65,745.538 
  "/>
<polyline clip-path="url(#clip7402)" style="stroke:#0c0727; stroke-width:4; stroke-opacity:1; fill:none" points="
  1204.79,730.99 1209.1,743.843 1209.86,745.538 1213.89,760.086 1215.1,774.633 1213.89,789.181 1209.86,803.729 1209.1,805.424 1204.79,818.277 1195.82,832.824 
  1194.55,834.447 1184.31,847.372 1180,851.681 1167.08,861.92 1165.46,863.184 1150.91,872.16 1138.06,876.468 1136.36,877.226 1121.81,881.256 1107.27,882.469 
  1092.72,881.256 1078.17,877.226 1076.48,876.468 1063.62,872.16 1049.07,863.184 1047.45,861.92 1034.53,851.681 1030.22,847.372 1019.98,834.447 1018.72,832.824 
  1009.74,818.277 1005.43,805.424 1004.67,803.729 1000.64,789.181 999.43,774.633 1000.64,760.086 1004.67,745.538 1005.43,743.843 1009.74,730.99 1018.72,716.442 
  1019.98,714.82 1030.22,701.894 1034.53,697.586 1047.45,687.347 1049.07,686.083 1063.62,677.107 1076.48,672.799 1078.17,672.04 1092.72,668.011 1107.27,666.797 
  1121.81,668.011 1136.36,672.04 1138.06,672.799 1150.91,677.107 1165.46,686.083 1167.08,687.347 1180,697.586 1184.31,701.894 1194.55,714.82 1195.82,716.442 
  1204.79,730.99 
  "/>
</svg>
