<?xml version="1.0" encoding="utf-8"?>
<svg xmlns="http://www.w3.org/2000/svg" xmlns:xlink="http://www.w3.org/1999/xlink" width="600" height="400" viewBox="0 0 2400 1600">
<defs>
  <clipPath id="clip7100">
    <rect x="0" y="0" width="2400" height="1600"/>
  </clipPath>
</defs>
<polygon clip-path="url(#clip7100)" points="
0,1600 2400,1600 2400,0 0,0 
  " fill="#ffffff" fill-rule="evenodd" fill-opacity="1"/>
<defs>
  <clipPath id="clip7101">
    <rect x="480" y="0" width="1681" height="1600"/>
  </clipPath>
</defs>
<polygon clip-path="url(#clip7100)" points="
167.279,1487.47 2352.76,1487.47 2352.76,47.2441 167.279,47.2441 
  " fill="#ffffff" fill-rule="evenodd" fill-opacity="1"/>
<defs>
  <clipPath id="clip7102">
    <rect x="167" y="47" width="2186" height="1441"/>
  </clipPath>
</defs>
<polyline clip-path="url(#clip7100)" style="stroke:#000000; stroke-width:4; stroke-opacity:1; fill:none" points="
  167.279,1487.47 2352.76,1487.47 
  "/>
<polyline clip-path="url(#clip7100)" style="stroke:#000000; stroke-width:4; stroke-opacity:1; fill:none" points="
  167.279,1487.47 167.279,47.2441 
  "/>
<polyline clip-path="url(#clip7100)" style="stroke:#000000; stroke-width:4; stroke-opacity:1; fill:none" points="
  525.354,1487.47 525.354,1465.87 
  "/>
<polyline clip-path="url(#clip7100)" style="stroke:#000000; stroke-width:4; stroke-opacity:1; fill:none" points="
  961.788,1487.47 961.788,1465.87 
  "/>
<polyline clip-path="url(#clip7100)" style="stroke:#000000; stroke-width:4; stroke-opacity:1; fill:none" points="
  1398.22,1487.47 1398.22,1465.87 
  "/>
<polyline clip-path="url(#clip7100)" style="stroke:#000000; stroke-width:4; stroke-opacity:1; fill:none" points="
  1834.65,1487.47 1834.65,1465.87 
  "/>
<polyline clip-path="url(#clip7100)" style="stroke:#000000; stroke-width:4; stroke-opacity:1; fill:none" points="
  2271.09,1487.47 2271.09,1465.87 
  "/>
<polyline clip-path="url(#clip7100)" style="stroke:#000000; stroke-width:4; stroke-opacity:1; fill:none" points="
  167.279,1211.07 200.061,1211.07 
  "/>
<polyline clip-path="url(#clip7100)" style="stroke:#000000; stroke-width:4; stroke-opacity:1; fill:none" points="
  167.279,920.111 200.061,920.111 
  "/>
<polyline clip-path="url(#clip7100)" style="stroke:#000000; stroke-width:4; stroke-opacity:1; fill:none" points="
  167.279,629.155 200.061,629.155 
  "/>
<polyline clip-path="url(#clip7100)" style="stroke:#000000; stroke-width:4; stroke-opacity:1; fill:none" points="
  167.279,338.2 200.061,338.2 
  "/>
<polyline clip-path="url(#clip7100)" style="stroke:#000000; stroke-width:4; stroke-opacity:1; fill:none" points="
  167.279,47.2441 200.061,47.2441 
  "/>
<g clip-path="url(#clip7100)">
<text style="fill:#000000; fill-opacity:1; font-family:Arial,Helvetica Neue,Helvetica,sans-serif; font-size:48px; text-anchor:middle;" transform="rotate(0, 525.354, 1541.47)" x="525.354" y="1541.47">0</text>
</g>
<g clip-path="url(#clip7100)">
<text style="fill:#000000; fill-opacity:1; font-family:Arial,Helvetica Neue,Helvetica,sans-serif; font-size:48px; text-anchor:middle;" transform="rotate(0, 961.788, 1541.47)" x="961.788" y="1541.47">30</text>
</g>
<g clip-path="url(#clip7100)">
<text style="fill:#000000; fill-opacity:1; font-family:Arial,Helvetica Neue,Helvetica,sans-serif; font-size:48px; text-anchor:middle;" transform="rotate(0, 1398.22, 1541.47)" x="1398.22" y="1541.47">60</text>
</g>
<g clip-path="url(#clip7100)">
<text style="fill:#000000; fill-opacity:1; font-family:Arial,Helvetica Neue,Helvetica,sans-serif; font-size:48px; text-anchor:middle;" transform="rotate(0, 1834.65, 1541.47)" x="1834.65" y="1541.47">90</text>
</g>
<g clip-path="url(#clip7100)">
<text style="fill:#000000; fill-opacity:1; font-family:Arial,Helvetica Neue,Helvetica,sans-serif; font-size:48px; text-anchor:middle;" transform="rotate(0, 2271.09, 1541.47)" x="2271.09" y="1541.47">120</text>
</g>
<g clip-path="url(#clip7100)">
<text style="fill:#000000; fill-opacity:1; font-family:Arial,Helvetica Neue,Helvetica,sans-serif; font-size:48px; text-anchor:end;" transform="rotate(0, 143.279, 1228.57)" x="143.279" y="1228.57">20</text>
</g>
<g clip-path="url(#clip7100)">
<text style="fill:#000000; fill-opacity:1; font-family:Arial,Helvetica Neue,Helvetica,sans-serif; font-size:48px; text-anchor:end;" transform="rotate(0, 143.279, 937.611)" x="143.279" y="937.611">40</text>
</g>
<g clip-path="url(#clip7100)">
<text style="fill:#000000; fill-opacity:1; font-family:Arial,Helvetica Neue,Helvetica,sans-serif; font-size:48px; text-anchor:end;" transform="rotate(0, 143.279, 646.655)" x="143.279" y="646.655">60</text>
</g>
<g clip-path="url(#clip7100)">
<text style="fill:#000000; fill-opacity:1; font-family:Arial,Helvetica Neue,Helvetica,sans-serif; font-size:48px; text-anchor:end;" transform="rotate(0, 143.279, 355.7)" x="143.279" y="355.7">80</text>
</g>
<g clip-path="url(#clip7100)">
<text style="fill:#000000; fill-opacity:1; font-family:Arial,Helvetica Neue,Helvetica,sans-serif; font-size:48px; text-anchor:end;" transform="rotate(0, 143.279, 64.7441)" x="143.279" y="64.7441">100</text>
</g>
<polyline clip-path="url(#clip7102)" style="stroke:#000000; stroke-width:4; stroke-opacity:1; fill:none" points="
  167.279,47.2441 2352.76,47.2441 
  "/>
<polyline clip-path="url(#clip7102)" style="stroke:#000000; stroke-width:4; stroke-opacity:1; fill:none" points="
  2352.76,1487.47 2352.76,47.2441 
  "/>
<polyline clip-path="url(#clip7102)" style="stroke:#0c0727; stroke-width:4; stroke-opacity:1; fill:none" points="
  1107.27,788.211 1093.69,774.633 1107.27,761.055 1120.84,774.633 1107.27,788.211 
  "/>
<polyline clip-path="url(#clip7102)" style="stroke:#240b4e; stroke-width:4; stroke-opacity:1; fill:none" points="
  1107.27,787.241 1094.66,774.633 1107.27,762.025 1119.87,774.633 1107.27,787.241 
  "/>
<polyline clip-path="url(#clip7102)" style="stroke:#420a67; stroke-width:4; stroke-opacity:1; fill:none" points="
  1107.27,786.272 1095.63,774.633 1107.27,762.995 1118.9,774.633 1107.27,786.272 
  "/>
<polyline clip-path="url(#clip7102)" style="stroke:#5d126d; stroke-width:4; stroke-opacity:1; fill:none" points="
  1107.27,785.302 1096.6,774.633 1107.27,763.965 1117.93,774.633 1107.27,785.302 
  "/>
<polyline clip-path="url(#clip7102)" style="stroke:#781c6d; stroke-width:4; stroke-opacity:1; fill:none" points="
  1107.27,784.332 1097.57,774.633 1107.27,764.935 1116.96,774.633 1107.27,784.332 
  "/>
<polyline clip-path="url(#clip7102)" style="stroke:#942666; stroke-width:4; stroke-opacity:1; fill:none" points="
  1107.27,783.362 1098.54,774.633 1107.27,765.905 1115.99,774.633 1107.27,783.362 
  "/>
<polyline clip-path="url(#clip7102)" style="stroke:#ad305b; stroke-width:4; stroke-opacity:1; fill:none" points="
  1107.27,782.392 1099.51,774.633 1107.27,766.874 1115.02,774.633 1107.27,782.392 
  "/>
<polyline clip-path="url(#clip7102)" style="stroke:#c73e4c; stroke-width:4; stroke-opacity:1; fill:none" points="
  1107.27,781.422 1100.48,774.633 1107.27,767.844 1114.05,774.633 1107.27,781.422 
  "/>
<polyline clip-path="url(#clip7102)" style="stroke:#db503a; stroke-width:4; stroke-opacity:1; fill:none" points="
  1107.27,780.452 1101.45,774.633 1107.27,768.814 1113.08,774.633 1107.27,780.452 
  "/>
<polyline clip-path="url(#clip7102)" style="stroke:#ec6925; stroke-width:4; stroke-opacity:1; fill:none" points="
  1107.27,779.483 1102.42,774.633 1107.27,769.784 1112.12,774.633 1107.27,779.483 
  "/>
<polyline clip-path="url(#clip7102)" style="stroke:#f7850e; stroke-width:4; stroke-opacity:1; fill:none" points="
  1107.27,778.513 1103.39,774.633 1107.27,770.754 1111.15,774.633 1107.27,778.513 
  "/>
<polyline clip-path="url(#clip7102)" style="stroke:#fba40a; stroke-width:4; stroke-opacity:1; fill:none" points="
  1107.27,777.543 1104.36,774.633 1107.27,771.724 1110.18,774.633 1107.27,777.543 
  "/>
<polyline clip-path="url(#clip7102)" style="stroke:#f9c52d; stroke-width:4; stroke-opacity:1; fill:none" points="
  1107.27,776.573 1105.33,774.633 1107.27,772.694 1109.21,774.633 1107.27,776.573 
  "/>
<polyline clip-path="url(#clip7102)" style="stroke:#f2e55f; stroke-width:4; stroke-opacity:1; fill:none" points="
  1107.27,775.603 1106.3,774.633 1107.27,773.663 1108.24,774.633 1107.27,775.603 
  "/>
</svg>
